<?xml version="1.0" encoding="UTF-8"?>
<!DOCTYPE svg PUBLIC "-//W3C//DTD SVG 1.1//EN" "http://www.w3.org/Graphics/SVG/1.1/DTD/svg11.dtd">
<svg xmlns="http://www.w3.org/2000/svg" version="1.1" width="2001px" height="2000px" style="shape-rendering:geometricPrecision; text-rendering:geometricPrecision; image-rendering:optimizeQuality; fill-rule:evenodd; clip-rule:evenodd" xmlns:xlink="http://www.w3.org/1999/xlink">
<g><path style="opacity:0.965" fill="#4168e1" d="M 991.5,571.5 C 1039.03,571.172 1075.53,590.839 1101,630.5C 1125.04,677.077 1122.04,721.743 1092,764.5C 1088.35,769.315 1084.19,773.648 1079.5,777.5C 1068.64,773.535 1057.64,770.035 1046.5,767C 1083.93,739.377 1095.76,703.211 1082,658.5C 1064.56,619.518 1034.39,600.351 991.5,601C 947.367,606.798 919.867,631.298 909,674.5C 903.784,711.201 915.617,741.034 944.5,764C 955.989,772.076 968.655,777.409 982.5,780C 1027.44,778.983 1069.1,789.983 1107.5,813C 1109.26,813.72 1110.09,814.887 1110,816.5C 1103.32,823.348 1096.49,830.015 1089.5,836.5C 1068.57,823.689 1045.9,815.522 1021.5,812C 1005.45,811.22 989.446,809.887 973.5,808C 922.174,794.859 891.008,762.359 880,710.5C 873.831,655.005 894.664,613.172 942.5,585C 958.145,577.509 974.478,573.009 991.5,571.5 Z"/></g>
<g><path style="opacity:0.972" fill="#4168e1" d="M 1202.5,696.5 C 1207.08,720.861 1210.74,745.527 1213.5,770.5C 1238.28,773.611 1262.94,777.277 1287.5,781.5C 1264.68,804.82 1241.68,827.986 1218.5,851C 1199.14,849.187 1179.81,847.187 1160.5,845C 1111.83,893.667 1063.17,942.333 1014.5,991C 1007.17,991.5 999.841,991.666 992.5,991.5C 992.109,984.079 992.609,976.746 994,969.5C 1042.33,921.167 1090.67,872.833 1139,824.5C 1137.33,805.125 1135.33,785.792 1133,766.5C 1156.37,743.299 1179.53,719.965 1202.5,696.5 Z"/></g>
<g><path style="opacity:0.966" fill="#4168e1" d="M 864.5,733.5 C 865.497,733.47 866.164,733.97 866.5,735C 869.928,743.668 873.428,752.168 877,760.5C 790.281,810.494 745.114,885.828 741.5,986.5C 744.399,1080.83 785.066,1153.66 863.5,1205C 952.336,1255.6 1041.34,1255.93 1130.5,1206C 1218.5,1148.16 1259.34,1066.33 1253,960.5C 1249.91,931.298 1242.08,903.465 1229.5,877C 1236.17,870.333 1242.83,863.667 1249.5,857C 1250.64,856.251 1251.64,856.417 1252.5,857.5C 1291.29,938.172 1293.46,1019.84 1259,1102.5C 1217.79,1189.38 1150.29,1243.88 1056.5,1266C 961.122,1283.41 877.122,1260.41 804.5,1197C 723.018,1116.51 695.851,1020.35 723,908.5C 746.517,830.839 793.683,772.505 864.5,733.5 Z"/></g>
<g><path style="opacity:0.966" fill="#4168e1" d="M 910.5,800.5 C 921.446,806.643 932.446,812.809 943.5,819C 874.89,844.362 834.723,893.196 823,965.5C 817.327,1039.32 845.16,1096.48 906.5,1137C 961.14,1167.92 1017.14,1170.59 1074.5,1145C 1137.79,1111.29 1170.79,1058.45 1173.5,986.5C 1173.57,954.228 1165.41,924.228 1149,896.5C 1148.33,895.5 1148.33,894.5 1149,893.5C 1155.35,886.985 1161.85,880.652 1168.5,874.5C 1182.86,894.706 1192.69,917.04 1198,941.5C 1212.44,1018.16 1191.94,1083.66 1136.5,1138C 1075.38,1189.76 1006.38,1203.76 929.5,1180C 859.015,1152.54 814.848,1102.04 797,1028.5C 783.066,945.613 808.232,877.446 872.5,824C 884.728,815.39 897.395,807.556 910.5,800.5 Z"/></g>
<g><path style="opacity:0.965" fill="#4168e1" d="M 984.5,861.5 C 1007.75,859.875 1030.08,863.542 1051.5,872.5C 1051.65,873.552 1051.48,874.552 1051,875.5C 1044.5,882 1038,888.5 1031.5,895C 987.451,882.797 950.617,893.964 921,928.5C 893.936,969.794 895.269,1010.13 925,1049.5C 960.25,1084.9 1000.42,1091.74 1045.5,1070C 1080.96,1047.24 1096.79,1014.74 1093,972.5C 1092.07,966.348 1090.57,960.348 1088.5,954.5C 1095.32,947.181 1102.32,940.014 1109.5,933C 1110.74,932.544 1111.58,933.044 1112,934.5C 1130.47,980.283 1125.47,1023.28 1097,1063.5C 1057.44,1108.85 1008.94,1122.02 951.5,1103C 901.432,1080.39 875.098,1041.56 872.5,986.5C 874.16,938.328 895.493,901.828 936.5,877C 951.748,869.083 967.748,863.916 984.5,861.5 Z"/></g>
<g><path style="opacity:0.947" fill="#4168e1" d="M 461.5,1320.5 C 462.75,1320.58 463.583,1321.24 464,1322.5C 480.066,1356.63 495.566,1390.96 510.5,1425.5C 503.833,1425.5 497.167,1425.5 490.5,1425.5C 488.363,1419.09 486.03,1412.76 483.5,1406.5C 469.496,1406.33 455.496,1406.5 441.5,1407C 438.705,1412.76 436.038,1418.59 433.5,1424.5C 426.833,1425.83 420.167,1425.83 413.5,1424.5C 429.514,1389.81 445.514,1355.14 461.5,1320.5 Z M 461.5,1358.5 C 466.596,1369.2 471.596,1380.03 476.5,1391C 467.173,1391.5 457.839,1391.67 448.5,1391.5C 453.029,1380.58 457.363,1369.58 461.5,1358.5 Z"/></g>
<g><path style="opacity:0.942" fill="#4168e1" d="M 561.5,1320.5 C 578.265,1319.25 592.598,1324.42 604.5,1336C 600.657,1340.67 596.657,1345.17 592.5,1349.5C 576.595,1334.34 560.095,1333.68 543,1347.5C 531.591,1363.16 530.591,1379.5 540,1396.5C 557.034,1414.32 574.7,1414.98 593,1398.5C 597.32,1402.33 601.153,1406.66 604.5,1411.5C 594.403,1422.12 581.903,1427.46 567,1427.5C 534.367,1424.53 516.867,1406.7 514.5,1374C 516.282,1343.73 531.948,1325.9 561.5,1320.5 Z"/></g>
<g><path style="opacity:0.942" fill="#4168e1" d="M 656.5,1320.5 C 673.621,1318.76 687.955,1324.09 699.5,1336.5C 696.137,1341.21 692.304,1345.54 688,1349.5C 674.245,1335.97 659.078,1334.13 642.5,1344C 630.85,1354.76 626.683,1367.93 630,1383.5C 637.251,1405.38 652.085,1413.54 674.5,1408C 679.577,1405.42 684.244,1402.25 688.5,1398.5C 692.452,1401.74 695.952,1405.41 699,1409.5C 699.667,1410.5 699.667,1411.5 699,1412.5C 689.119,1422.36 677.119,1427.36 663,1427.5C 643.66,1427.33 628.66,1419.33 618,1403.5C 607.461,1382.42 608.128,1361.76 620,1341.5C 629.288,1329.44 641.455,1322.44 656.5,1320.5 Z"/></g>
<g><path style="opacity:0.948" fill="#4168e1" d="M 752.5,1320.5 C 778.138,1319.33 796.305,1330.33 807,1353.5C 815.014,1378.28 809.514,1399.45 790.5,1417C 770.261,1430.06 749.595,1430.73 728.5,1419C 707.117,1401.49 700.784,1379.49 709.5,1353C 717.689,1333.92 732.022,1323.08 752.5,1320.5 Z M 753.5,1337.5 C 773.331,1337.18 785.831,1346.51 791,1365.5C 794.413,1384.84 787.579,1399 770.5,1408C 742.77,1413.62 727.437,1402.28 724.5,1374C 725.228,1354.46 734.894,1342.3 753.5,1337.5 Z"/></g>
<g><path style="opacity:0.94" fill="#4168e1" d="M 925.5,1320.5 C 931.075,1324.57 936.241,1329.23 941,1334.5C 956.667,1351.17 972.333,1367.83 988,1384.5C 988.5,1363.84 988.667,1343.17 988.5,1322.5C 994.5,1322.5 1000.5,1322.5 1006.5,1322.5C 1006.67,1357.5 1006.5,1392.5 1006,1427.5C 985.667,1406.5 965.333,1385.5 945,1364.5C 944.5,1384.83 944.333,1405.16 944.5,1425.5C 938.167,1425.5 931.833,1425.5 925.5,1425.5C 925.5,1390.5 925.5,1355.5 925.5,1320.5 Z"/></g>
<g><path style="opacity:0.943" fill="#4168e1" d="M 1147.5,1320.5 C 1160.17,1319.9 1172.17,1322.4 1183.5,1328C 1185.59,1329.04 1187.25,1330.54 1188.5,1332.5C 1185.52,1337.47 1182.19,1342.14 1178.5,1346.5C 1167.91,1338.21 1156.24,1336.05 1143.5,1340C 1137.68,1343.83 1135.84,1349 1138,1355.5C 1139.17,1356.67 1140.33,1357.83 1141.5,1359C 1153.95,1362.62 1166.28,1366.62 1178.5,1371C 1189.86,1377.57 1194.36,1387.4 1192,1400.5C 1188.87,1414.29 1180.37,1422.79 1166.5,1426C 1151.03,1428.73 1136.36,1426.4 1122.5,1419C 1119.87,1417.37 1117.54,1415.37 1115.5,1413C 1119.03,1408.3 1122.36,1403.47 1125.5,1398.5C 1137.53,1409.02 1151.2,1412.18 1166.5,1408C 1175.1,1402.3 1176.1,1395.64 1169.5,1388C 1156.74,1383.98 1144.07,1379.64 1131.5,1375C 1120.74,1368.07 1116.57,1358.24 1119,1345.5C 1123.07,1330.93 1132.57,1322.59 1147.5,1320.5 Z"/></g>
<g><path style="opacity:0.95" fill="#4168e1" d="M 1248.5,1320.5 C 1263.03,1319.4 1276.03,1323.24 1287.5,1332C 1289.02,1333.35 1290.35,1334.85 1291.5,1336.5C 1287.47,1340.86 1283.47,1345.19 1279.5,1349.5C 1261.38,1333.01 1243.88,1333.68 1227,1351.5C 1217.83,1367.65 1218.5,1383.32 1229,1398.5C 1242.76,1411.43 1257.92,1413.43 1274.5,1404.5C 1275.5,1398.2 1275.83,1391.87 1275.5,1385.5C 1267.5,1385.5 1259.5,1385.5 1251.5,1385.5C 1251.5,1380.17 1251.5,1374.83 1251.5,1369.5C 1265.5,1369.5 1279.5,1369.5 1293.5,1369.5C 1293.67,1384.5 1293.5,1399.5 1293,1414.5C 1271.5,1429.74 1249,1431.24 1225.5,1419C 1204.08,1402.41 1197.25,1380.91 1205,1354.5C 1213.1,1334.88 1227.6,1323.54 1248.5,1320.5 Z"/></g>
<g><path style="opacity:0.948" fill="#4168e1" d="M 1351.5,1320.5 C 1392.42,1321.59 1411.59,1342.59 1409,1383.5C 1405.15,1406.35 1391.98,1420.52 1369.5,1426C 1341.59,1430.8 1321.42,1420.63 1309,1395.5C 1300.72,1371.21 1305.55,1350.05 1323.5,1332C 1332.01,1325.89 1341.34,1322.06 1351.5,1320.5 Z M 1352.5,1337.5 C 1376.55,1337.71 1389.55,1349.88 1391.5,1374C 1388.25,1401.94 1372.91,1413.27 1345.5,1408C 1330.97,1401.44 1323.63,1390.11 1323.5,1374C 1324.2,1354.49 1333.87,1342.32 1352.5,1337.5 Z"/></g>
<g><path style="opacity:0.946" fill="#4168e1" d="M 1461.5,1320.5 C 1463.41,1320.57 1464.58,1321.57 1465,1323.5C 1480.5,1357.17 1496,1390.83 1511.5,1424.5C 1504.83,1425.83 1498.17,1425.83 1491.5,1424.5C 1488.73,1418.69 1486.07,1412.86 1483.5,1407C 1469.49,1406.17 1455.49,1406.33 1441.5,1407.5C 1438.76,1413.38 1436.43,1419.38 1434.5,1425.5C 1427.83,1425.5 1421.17,1425.5 1414.5,1425.5C 1429.89,1390.39 1445.55,1355.39 1461.5,1320.5 Z M 1462.5,1359.5 C 1467.73,1369.85 1472.4,1380.52 1476.5,1391.5C 1467.16,1391.67 1457.83,1391.5 1448.5,1391C 1453.07,1380.45 1457.74,1369.95 1462.5,1359.5 Z"/></g>
<g><path style="opacity:0.959" fill="#4168e1" d="M 826.5,1322.5 C 832.5,1322.5 838.5,1322.5 844.5,1322.5C 844.333,1346.17 844.5,1369.84 845,1393.5C 846.963,1404.29 853.463,1409.96 864.5,1410.5C 875.865,1409.63 882.699,1403.63 885,1392.5C 885.5,1369.17 885.667,1345.84 885.5,1322.5C 891.5,1322.5 897.5,1322.5 903.5,1322.5C 903.667,1347.5 903.5,1372.5 903,1397.5C 898.567,1417.74 885.9,1427.74 865,1427.5C 847.068,1427.87 834.734,1419.87 828,1403.5C 826.535,1376.55 826.035,1349.55 826.5,1322.5 Z"/></g>
<g><path style="opacity:0.965" fill="#4168e1" d="M 1021.5,1322.5 C 1050.5,1322.5 1079.5,1322.5 1108.5,1322.5C 1108.5,1327.83 1108.5,1333.17 1108.5,1338.5C 1097.17,1338.5 1085.83,1338.5 1074.5,1338.5C 1074.5,1367.5 1074.5,1396.5 1074.5,1425.5C 1068.5,1425.5 1062.5,1425.5 1056.5,1425.5C 1056.5,1396.5 1056.5,1367.5 1056.5,1338.5C 1044.83,1338.5 1033.17,1338.5 1021.5,1338.5C 1021.5,1333.17 1021.5,1327.83 1021.5,1322.5 Z"/></g>
<g><path style="opacity:0.962" fill="#4168e1" d="M 1522.5,1322.5 C 1528.5,1322.5 1534.5,1322.5 1540.5,1322.5C 1540.5,1351.17 1540.5,1379.83 1540.5,1408.5C 1555.83,1408.5 1571.17,1408.5 1586.5,1408.5C 1586.5,1414.17 1586.5,1419.83 1586.5,1425.5C 1565.17,1425.5 1543.83,1425.5 1522.5,1425.5C 1522.5,1391.17 1522.5,1356.83 1522.5,1322.5 Z"/></g>
</svg>
